#!OML:ASF X:\für Bonn\!DataBase\2005_08_11_Bastian_Final\c3d\Bastian.ASF
:FULLY-SPECIFIED
:DEGREES
93
root -20.5973 17.67 0.419421 134.337 -75.3593 -139.368
lowerback 5.29673 7.81204 8.54112
upperback 2.98238 10.7076 -2.30636
thorax 2.19963 5.55788 -7.29102
lowerneck -12.567 -10.1145 -4.68278
upperneck -13.0904 -12.9045 11.917
head -0.941635 -6.63491 4.23458
rclavicle -7.95139e-016 6.36111e-015
rhumerus 58.807 -2.31939 -22.4631
rradius 21.0385
rwrist -7.23136
rhand -9.10785 -2.32932
rfingers 7.12502
rthumb 16.8426 -31.6189
lclavicle -7.95139e-016 6.36111e-015
lhumerus -10.001 -20.7233 83.5269
lradius 29.3624
lwrist 19.5776
lhand -11.8263 -8.7197
lfingers 7.12502
lthumb 14.2244 20.7732
rfemur 15.5467 -8.35469 26.5101
rtibia 27.4618
rfoot -7.05912 -2.0196
rtoes -30.0475
lfemur -10.9799 -3.18916 -9.09028
ltibia 26.0636
lfoot -1.33545 -11.8499
ltoes -20.887
94
root -20.6493 17.6751 0.423197 133.446 -75.5416 -138.436
lowerback 5.54786 7.80342 8.41843
upperback 2.95493 10.709 -2.37159
thorax 2.02179 5.54796 -7.33629
lowerneck -12.6008 -10.1653 -4.66787
upperneck -13.2457 -12.965 12.0852
head -0.971238 -6.67373 4.29096
rclavicle -1.145e-013 1.43125e-014
rhumerus 58.6531 -2.61871 -22.2962
rradius 20.6578
rwrist -7.14814
rhand -8.11807 -2.73384
rfingers 7.12502
rthumb 17.7952 -31.9396
lclavicle -1.145e-013 1.43125e-014
lhumerus -9.8642 -20.9473 83.6358
lradius 30.0566
lwrist 19.9825
lhand -12.0768 -9.202
lfingers 7.12502
lthumb 13.983 20.3077
rfemur 15.2231 -8.48493 26.7241
rtibia 27.4454
rfoot -7.4475 -2.38539
rtoes -30.3893
lfemur -10.8748 -3.38734 -9.12375
ltibia 26.0522
lfoot -1.44987 -11.9391
ltoes -20.5402
95
root -20.6987 17.68 0.427291 132.587 -75.7165 -137.531
lowerback 5.78603 7.79839 8.28949
upperback 2.93118 10.7127 -2.4323
thorax 1.85353 5.53949 -7.37112
lowerneck -12.607 -10.2096 -4.63899
upperneck -13.4291 -13.0181 12.2405
head -1.01748 -6.7111 4.34418
rclavicle 5.22804e-014 -4.6118e-014
rhumerus 58.4859 -2.95105 -22.2319
rradius 20.3202
rwrist -6.95408
rhand -7.02469 -3.1147
rfingers 7.12502
rthumb 18.8471 -32.2216
lclavicle 5.22804e-014 -4.6118e-014
lhumerus -9.73524 -21.1688 83.7579
lradius 30.7099
lwrist 20.3844
lhand -12.3189 -9.6663
lfingers 7.12502
lthumb 13.7497 19.8594
rfemur 14.8571 -8.62252 26.9176
rtibia 27.454
rfoot -7.8945 -2.75834
rtoes -30.6106
lfemur -10.7836 -3.6498 -9.15775
ltibia 26.0415
lfoot -1.56901 -11.952
ltoes -20.1196
96
root -20.7465 17.6834 0.431805 131.73 -75.8961 -136.656
lowerback 6.03216 7.78585 8.17425
upperback 2.91247 10.7064 -2.50042
thorax 1.68862 5.52674 -7.42204
lowerneck -12.5214 -10.2356 -4.62346
upperneck -13.6469 -13.0436 12.4264
head -1.08929 -6.73789 4.41978
rclavicle -3.08116e-014 3.18055e-015
rhumerus 58.3024 -3.28327 -22.2231
rradius 20.0046
rwrist -6.68689
rhand -5.83728 -3.43302
rfingers 7.12502
rthumb 19.9888 -32.4249
lclavicle -3.08116e-014 3.18055e-015
lhumerus -9.66174 -21.4543 83.8723
lradius 31.3421
lwrist 20.8227
lhand -12.5103 -10.0687
lfingers 7.12502
lthumb 13.5652 19.4694
rfemur 14.501 -8.78177 27.0721
rtibia 27.4857
rfoot -8.40742 -3.10758
rtoes -30.7251
lfemur -10.6756 -3.82677 -9.21252
ltibia 26.0468
lfoot -1.68781 -12.0408
ltoes -19.7965
97
root -20.7927 17.6863 0.435787 130.839 -76.0684 -135.738
lowerback 6.22686 7.77503 8.06648
upperback 2.91171 10.6977 -2.5552
thorax 1.56941 5.51523 -7.45317
lowerneck -12.3701 -10.2586 -4.62021
upperneck -13.9305 -13.0616 12.6204
head -1.19362 -6.76475 4.50878
rclavicle -3.97569e-014 -9.54166e-015
rhumerus 58.1131 -3.63849 -22.227
rradius 19.7247
rwrist -6.38935
rhand -4.59661 -3.72662
rfingers 7.12502
rthumb 21.1809 -32.5895
lclavicle -3.97569e-014 -9.54166e-015
lhumerus -9.59785 -21.7255 84.019
lradius 31.9408
lwrist 21.2065
lhand -12.7059 -10.3499
lfingers 7.12502
lthumb 13.3767 19.2007
rfemur 14.1095 -8.91787 27.2437
rtibia 27.54
rfoot -8.96402 -3.48137
rtoes -30.636
lfemur -10.5881 -4.03776 -9.25023
ltibia 26.0565
lfoot -1.77948 -12.1133
ltoes -19.1936
98
root -20.8372 17.6885 0.439382 129.948 -76.2225 -134.826
lowerback 6.39932 7.75804 7.97429
upperback 2.90705 10.68 -2.60405
thorax 1.45848 5.49975 -7.48339
lowerneck -12.0412 -10.2653 -4.65572
upperneck -14.5139 -12.9899 13.1585
head -1.19379 -6.7784 4.30593
rclavicle -2.38542e-014 -1.90833e-014
rhumerus 57.9529 -3.97926 -22.3164
rradius 19.431
rwrist -6.04416
rhand -3.35041 -3.93078
rfingers 7.12502
rthumb 22.3776 -32.6547
lclavicle -2.38542e-014 -1.90833e-014
lhumerus -9.62463 -22.0984 84.1536
lradius 32.572
lwrist 21.6987
lhand -12.8925 -10.4848
lfingers 7.12502
lthumb 13.1968 19.0775
rfemur 13.7032 -9.06973 27.4071
rtibia 27.6062
rfoot -9.5281 -3.81723
rtoes -30.4229
lfemur -10.5023 -4.21921 -9.28121
ltibia 26.0857
lfoot -1.89512 -12.1812
ltoes -18.8587
99
root -20.881 17.6894 0.442822 129.122 -76.3896 -133.985
lowerback 6.54897 7.74844 7.86737
upperback 2.91592 10.6686 -2.64954
thorax 1.37219 5.48857 -7.49716
lowerneck -11.7338 -10.2745 -4.6982
upperneck -14.884 -12.9769 13.3807
head -1.32899 -6.79749 4.40877
rclavicle 8.48811e-014 -3.65764e-014
rhumerus 57.7667 -4.28044 -22.2998
rradius 19.1787
rwrist -5.86035
rhand -2.09742 -4.07897
rfingers 7.12502
rthumb 23.5799 -32.6533
lclavicle 8.48811e-014 -3.65764e-014
lhumerus -9.62694 -22.4235 84.3201
lradius 33.0974
lwrist 22.1387
lhand -13.033 -10.5337
lfingers 7.12502
lthumb 13.0613 19.0374
rfemur 13.2906 -9.16929 27.5446
rtibia 27.6826
rfoot -10.1149 -4.16699
rtoes -29.8455
lfemur -10.4166 -4.43546 -9.34228
ltibia 26.1194
lfoot -2.021 -12.2242
ltoes -18.6147
100
root -20.9225 17.6898 0.446311 128.256 -76.5568 -133.112
lowerback 6.71748 7.72348 7.79397
upperback 2.92782 10.6392 -2.70624
thorax 1.28407 5.46921 -7.5433
lowerneck -11.4159 -10.2838 -4.7354
upperneck -15.264 -12.9639 13.6033
head -1.46915 -6.81829 4.51249
rclavicle -9.20373e-014 1.90833e-014
rhumerus 57.6204 -4.62133 -22.4041
rradius 18.9033
rwrist -5.57152
rhand -0.836203 -4.186
rfingers 7.12502
rthumb 24.7892 -32.5994
lclavicle -9.20373e-014 1.90833e-014
lhumerus -9.67977 -22.7042 84.4757
lradius 33.6164
lwrist 22.5048
lhand -13.1192 -10.4512
lfingers 7.12502
lthumb 12.9783 19.1252
rfemur 12.8586 -9.22712 27.6981
rtibia 27.7724
rfoot -10.7111 -4.54726
rtoes -29.2153
lfemur -10.3366 -4.58016 -9.39842
ltibia 26.1495
lfoot -2.12827 -12.3421
ltoes -18.228
101
root -20.9638 17.6909 0.450092 127.351 -76.6988 -132.204
lowerback 6.87142 7.69055 7.76483
upperback 2.95572 10.6002 -2.75144
thorax 1.2252 5.44737 -7.59722
lowerneck -11.1501 -10.2987 -4.80392
upperneck -15.6042 -12.9557 13.8291
head -1.58699 -6.83778 4.61761
rclavicle -1.23246e-014 -1.74931e-014
rhumerus 57.4762 -4.88092 -22.3396
rradius 18.6781
rwrist -5.49389
rhand 0.350336 -4.34799
rfingers 7.12502
rthumb 25.9259 -32.6001
lclavicle -1.23246e-014 -1.74931e-014
lhumerus -9.76848 -22.9406 84.6398
lradius 34.1227
lwrist 22.8216
lhand -13.1961 -10.3111
lfingers 7.12502
lthumb 12.9041 19.2699
rfemur 12.3912 -9.24039 27.8778
rtibia 27.8736
rfoot -11.2849 -4.93548
rtoes -28.4366
lfemur -10.2377 -4.71691 -9.4293
ltibia 26.1691
lfoot -2.20494 -12.4528
ltoes -17.7129
102
root -21.0042 17.6932 0.45335 126.552 -76.8321 -131.398
lowerback 7.04755 7.66733 7.73793
upperback 2.95978 10.5764 -2.81233
thorax 1.13545 5.43149 -7.67416
lowerneck -10.8494 -10.3127 -4.84725
upperneck -15.9579 -12.9478 14.0503
head -1.71626 -6.86039 4.72058
rclavicle -1.42926e-013 4.77083e-014
rhumerus 57.2806 -5.06175 -22.1725
rradius 18.4608
rwrist -5.55273
rhand 1.4722 -4.49552
rfingers 7.12502
rthumb 26.9997 -32.586
lclavicle -1.42926e-013 4.77083e-014
lhumerus -9.90977 -23.1728 84.8119
lradius 34.5758
lwrist 23.0883
lhand -13.2121 -10.1821
lfingers 7.12502
lthumb 12.8887 19.3999
rfemur 11.8655 -9.20823 28.048
rtibia 27.9823
rfoot -11.7958 -5.3172
rtoes -27.7172
lfemur -10.1358 -4.99097 -9.48192
ltibia 26.1858
lfoot -2.33651 -12.4189
ltoes -17.5633
103
root -21.0431 17.6949 0.45681 125.784 -76.9603 -130.626
lowerback 7.22638 7.6385 7.70648
upperback 2.96374 10.5449 -2.86656
thorax 1.04044 5.41117 -7.74225
lowerneck -10.6213 -10.3232 -4.82905
upperneck -16.2377 -12.947 14.193
head -1.82316 -6.88307 4.78446
rclavicle 7.83212e-014 -5.40694e-014
rhumerus 57.076 -5.19765 -21.9511
rradius 18.2907
rwrist -5.6204
rhand 2.53877 -4.66338
rfingers 7.12502
rthumb 28.0197 -32.5915
lclavicle 7.83212e-014 -5.40694e-014
lhumerus -10.0999 -23.2985 84.9979
lradius 34.9492
lwrist 23.2281
lhand -13.1867 -10.0961
lfingers 7.12502
lthumb 12.9132 19.4844
rfemur 11.3323 -9.11314 28.2215
rtibia 28.1006
rfoot -12.3264 -5.68863
rtoes -26.9377
lfemur -10.0311 -5.21343 -9.5357
ltibia 26.193
lfoot -2.43292 -12.4028
ltoes -17.201
104
root -21.0814 17.6959 0.460998 125.116 -77.084 -129.957
lowerback 7.39006 7.61263 7.67243
upperback 2.98373 10.515 -2.92168
thorax 0.970721 5.39319 -7.80584
lowerneck -10.445 -10.3358 -4.74067
upperneck -16.5085 -12.9595 14.2669
head -1.92947 -6.91294 4.81438
rclavicle 3.18055e-015 3.18055e-014
rhumerus 56.84 -5.23235 -21.5217
rradius 18.1565
rwrist -5.92813
rhand 3.5091 -4.90996
rfingers 7.12502
rthumb 28.9469 -32.6828
lclavicle 3.18055e-015 3.18055e-014
lhumerus -10.2957 -23.4253 85.1725
lradius 35.2995
lwrist 23.3507
lhand -13.0978 -9.95584
lfingers 7.12502
lthumb 12.9989 19.6192
rfemur 10.7817 -8.96375 28.3809
rtibia 28.2185
rfoot -12.8302 -6.06083
rtoes -26.3696
lfemur -9.93318 -5.31437 -9.60252
ltibia 26.2055
lfoot -2.52075 -12.4834
ltoes -16.9158
105
root -21.1181 17.6977 0.46536 124.52 -77.1991 -129.357
lowerback 7.55542 7.58551 7.61808
upperback 2.99423 10.4827 -2.95503
thorax 0.881408 5.37203 -7.83701
lowerneck -10.3082 -10.3455 -4.67032
upperneck -16.7135 -12.9699 14.305
head -2.01235 -6.93583 4.83164
rclavicle -2.54444e-014 1.43125e-014
rhumerus 56.6151 -5.11764 -20.8564
rradius 18.0219
rwrist -6.43718
rhand 4.38111 -5.22493
rfingers 7.12502
rthumb 29.7795 -32.8519
lclavicle -2.54444e-014 1.43125e-014
lhumerus -10.5381 -23.4821 85.404
lradius 35.5292
lwrist 23.3924
lhand -13.0133 -9.92928
lfingers 7.12502
lthumb 13.0804 19.6405
rfemur 10.216 -8.77597 28.5274
rtibia 28.3383
rfoot -13.3056 -6.3854
rtoes -25.9505
lfemur -9.84375 -5.37336 -9.67097
ltibia 26.2216
lfoot -2.58686 -12.5968
ltoes -16.6036
106
root -21.1539 17.6973 0.47043 123.923 -77.2775 -128.772
lowerback 7.7452 7.5659 7.62333
upperback 3.00648 10.4656 -3.00546
thorax 0.798165 5.36009 -7.92146
lowerneck -10.209 -10.3698 -4.5453
upperneck -16.9085 -13.0048 14.3469
head -2.08797 -6.97305 4.83829
rclavicle 1.65786e-013 -1.27222e-014
rhumerus 56.3435 -5.10082 -20.436
rradius 17.9295
rwrist -6.69127
rhand 5.21538 -5.51778
rfingers 7.12502
rthumb 30.5754 -32.9993
lclavicle 1.65786e-013 -1.27222e-014
lhumerus -10.7674 -23.5875 85.584
lradius 35.6571
lwrist 23.4138
lhand -12.8935 -9.99072
lfingers 7.12502
lthumb 13.1958 19.5717
rfemur 9.66239 -8.53639 28.6975
rtibia 28.45
rfoot -13.7425 -6.67877
rtoes -25.6736
lfemur -9.74521 -5.39514 -9.71141
ltibia 26.2543
lfoot -2.66466 -12.7257
ltoes -16.2796
107
root -21.1882 17.6981 0.475586 123.484 -77.358 -128.335
lowerback 7.91184 7.54311 7.59667
upperback 3.02328 10.4401 -3.05023
thorax 0.723695 5.34382 -7.9788
lowerneck -10.1658 -10.3757 -4.38763
upperneck -17.0533 -13.023 14.3305
head -2.14904 -6.99864 4.81872
rclavicle -2.62396e-014 -1.90833e-014
rhumerus 56.1433 -5.22159 -20.4287
rradius 17.873
rwrist -6.50829
rhand 6.07975 -5.82794
rfingers 7.12502
rthumb 31.3993 -33.1525
lclavicle -2.62396e-014 -1.90833e-014
lhumerus -11.0148 -23.6254 85.7841
lradius 35.6925
lwrist 23.3843
lhand -12.7748 -10.1289
lfingers 7.12502
lthumb 13.3103 19.4261
rfemur 9.07868 -8.25296 28.8427
rtibia 28.5565
rfoot -14.132 -6.93394
rtoes -25.6688
lfemur -9.65608 -5.47244 -9.77669
ltibia 26.2895
lfoot -2.75948 -12.7762
ltoes -15.9678
